<svg 
 xmlns="http://www.w3.org/2000/svg"
 xmlns:xlink="http://www.w3.org/1999/xlink"
 width="283px" height="360px">
<defs>
<linearGradient id="PSgrad_0" x1="0%" x2="0%" y1="100%" y2="0%">
  <stop offset="0%" stop-color="rgb(53,81,164)" stop-opacity="1" />
  <stop offset="50%" stop-color="rgb(44,142,196)" stop-opacity="1" />
  <stop offset="100%" stop-color="rgb(49,205,176)" stop-opacity="1" />
</linearGradient>

</defs>
<path fill-rule="evenodd"  fill="url(#PSgrad_0)"
 d="M23.996,0.969 L25.004,0.969 C38.259,0.969 49.004,11.714 49.004,24.969 L49.004,335.031 C49.004,348.286 38.259,359.031 25.004,359.031 L23.996,359.031 C10.741,359.031 -0.004,348.286 -0.004,335.031 L-0.004,24.969 C-0.004,11.714 10.741,0.969 23.996,0.969 Z"/>
<path fill-rule="evenodd"  fill="url(#PSgrad_0)"
 d="M85.426,317.942 L82.500,317.942 C69.774,317.942 59.458,307.626 59.458,294.900 L59.458,65.419 C59.458,52.693 69.774,42.377 82.500,42.377 L85.426,42.377 C98.152,42.377 108.468,52.693 108.468,65.419 L108.468,294.900 C108.468,307.626 98.152,317.942 85.426,317.942 Z"/>
<path fill-rule="evenodd"  fill="url(#PSgrad_0)"
 d="M144.988,276.319 L142.032,276.319 C129.306,276.319 118.990,266.003 118.990,253.277 L118.990,104.728 C118.990,92.002 129.306,81.685 142.032,81.685 L144.988,81.685 C157.713,81.685 168.030,92.002 168.030,104.728 L168.030,253.277 C168.030,266.003 157.713,276.319 144.988,276.319 Z"/>
<path fill-rule="evenodd"  fill="url(#PSgrad_0)"
 d="M203.988,236.414 L201.032,236.414 C188.306,236.414 177.990,226.097 177.990,213.372 L177.990,144.613 C177.990,131.887 188.306,121.570 201.032,121.570 L203.988,121.570 C216.713,121.570 227.030,131.887 227.030,144.613 L227.030,213.372 C227.030,226.097 216.713,236.414 203.988,236.414 Z"/>
<path fill-rule="evenodd"  fill="url(#PSgrad_0)"
 d="M258.505,155.1000 C272.039,155.1000 283.010,166.971 283.010,180.505 C283.010,194.039 272.039,205.010 258.505,205.010 C244.971,205.010 233.1000,194.039 233.1000,180.505 C233.1000,166.971 244.971,155.1000 258.505,155.1000 Z"/>
</svg>